Patient4_TMGait_0pt7_02_right_13_EMG.mot
version=1
nRows=37
nColumns=33
inDegrees=no
endheader
time	1LAddLong	2LGlutMax	3LGlutMed	4LIliopsoas	5LSemiMemb	6LBicFemLong	7LRecFem	8LVastMed	9LVastLat	10LGasMed	11LTibAnt	12lTibPost	13LPeroneusLong	14LSol	15LExtDigLong	16LFlexDigLong	17RAddLong	18RGlutMax	19RGlutMed	20RIliopsoas	21RSemiMemb	22RBicFemLong	23RRecFem	24RVastMed	25RVastLat	26RGasMed	27RTibAnt	28RTibPost	29RPeroneusLong	30RSol	31RExtDigLong	32RFlexDigLong
14.37	-0.041199	-0.22461	-0.24246	0.053711	0.03479	-0.031433	0.29907	-0.008392	0.1767	-0.1413	-0.012817	0.012512	-0.061035	0.1178	0.001221	-0.002441	-0.009003	-0.22827	-0.55405	-0.088806	0.38376	0.18997	-0.74722	0.11459	0.08667	-0.004883	0.031128	0.23041	0.076599	0.2034	0.003662	-0.004425
14.371	-0.028839	-0.21042	-0.24582	0.034027	0.038147	-0.054169	0.31158	-0.002899	0.14069	-0.16983	0.000763	-0.004425	-0.065613	0.09201	-0.025787	-0.00351	0.029144	-0.25757	-0.36713	-0.043945	0.41916	0.072021	-0.43549	-0.043488	-0.13138	-0.009918	0.065308	0.17609	0.00824	0.12146	0.000305	-0.008087
14.372	-0.032806	-0.18539	-0.26901	0.045013	0.035248	-0.032654	0.39139	0.001373	0.14481	-0.07309	-0.002441	-0.012817	-0.086975	0.070038	-0.03479	-0.002136	0.035095	-0.24689	-1.0887	0.054169	0.33951	-0.066071	-0.32074	-0.087585	-0.33478	0.002441	0.10376	0.082397	-0.087738	-0.038757	-0.000458	-0.007172
14.373	-0.028839	-0.11398	-0.28015	-0.008698	0.041504	-0.039825	0.41199	0.00824	0.11169	-0.074615	-0.005646	0.025787	-0.10056	0.03067	-0.029297	0.011597	0.039215	-0.04776	-0.99838	0.1152	0.33524	-0.0177	-0.077972	-0.018921	-0.54779	-0.020142	0.11459	-0.005035	-0.18723	-0.13458	0.000305	-0.007324
14.374	-0.030365	-0.14954	-0.2742	-0.005188	0.033417	-0.029449	0.43793	0.009918	0.079193	-0.16251	-0.002594	0.034637	-0.099945	0.036926	0.018616	0.007782	0.035553	0.078735	-0.21469	0.023499	0.35523	0.12405	-0.15137	0.089722	-0.44617	0.023651	0.11887	-0.015106	-1.0612	-0.22446	-0.005341	-0.001984
14.375	-0.02533	-0.16708	-0.25436	-0.007935	0.02533	-0.035858	0.44189	0.012054	0.057526	-0.28564	-0.003052	0.028229	-0.10056	0.098724	-0.044861	0.009918	0.023651	0.20538	0.1387	-0.025787	0.46631	0.17548	-0.40802	0.10666	-0.32333	0.010681	0.08667	0.003052	-1.1165	-0.4602	0.002594	-0.006714
14.376	-0.019836	-0.12985	-0.26291	-0.0177	0.032959	-0.032959	0.43961	0.017548	0.04837	-0.20279	-0.007935	0.031433	-0.096741	0.19302	0.05127	-0.001678	0.079651	0.24506	0.62729	-0.082092	0.38406	0.048828	-0.12253	-0.013428	-0.16266	-0.027161	0.09903	-0.052032	-0.45944	-0.66498	-0.002289	-0.008698
14.377	-0.023346	-0.15778	-0.29465	-0.019226	0.03067	-0.020447	0.46768	0.01297	0.036011	-0.1326	-0.013428	0.037537	-0.10422	0.14587	0.070343	0.004425	0.11505	0.20157	0.093536	-0.011597	-0.1062	0.15823	0.29282	-0.12985	-0.1651	-0.046997	0.060883	-0.15472	0.89203	-0.67078	-0.004272	0.005646
14.378	-0.02121	-0.18585	-0.36346	-0.032806	0.02594	-0.017548	0.4068	0.013123	0.030518	-0.11353	-0.010223	0.029144	-0.11826	0.079651	0.058746	0.004578	0.087891	0.18005	-0.62668	0.046082	-0.58975	0.39017	0.3183	-0.15091	-0.18982	-0.065308	0.11353	-0.13443	0.56152	-0.37582	-0.001678	0.010834
14.379	-0.028992	-0.23697	-0.40817	-0.007629	0.019989	0.006714	0.30701	0.02121	0.022583	-0.093384	-0.008087	0.021362	-0.096588	0.065155	0.056763	0.007019	0.031586	0.30121	-1.0295	0.12665	-0.50095	0.30563	0.24048	-0.11292	-0.19409	-0.071411	0.0914	0.048981	-1.0899	0.2832	-0.002136	0.019531
14.38	-0.028534	-0.21698	-0.40863	0.003967	0.018616	0.01358	0.19989	0.007324	0.015106	-0.087128	-0.025024	0.023499	-0.084229	0.076447	0.06485	0.005493	0.022888	0.27924	-1.6066	0.039978	-0.46982	0.37857	0.20554	-0.067139	-0.24948	-0.091553	-0.065765	0.14542	-0.90607	0.46692	-0.002289	0.000153
14.381	-0.027924	-0.12009	-0.39948	0.011139	0.030823	0.022736	0.048218	0.006104	-0.003052	-0.06012	-0.048218	0.024261	-0.10284	0.10086	0.13901	0.017853	-0.017548	0.36621	-1.6191	-0.17319	-0.16937	0.33249	0.29984	0.00824	-0.18326	-0.13001	0.014648	0.018616	-0.70908	0.35294	-0.001678	-0.006866
14.382	-0.027924	-0.11215	-0.33386	0.020752	0.019379	0.014191	0.006561	0.017395	0.019989	-0.042419	-0.04715	0.022888	-0.12177	0.095367	0.088501	0.014038	-0.010986	0.30182	-1.4316	-0.35049	0.079498	0.14618	0.39932	-0.006256	-0.14084	0.037079	0.11719	-0.25971	0.36972	0.14771	-0.000916	-0.005341
14.383	-0.017395	-0.10147	-0.28351	0.05188	0.025635	0.026245	-0.021515	0.007019	0.032806	-0.032349	-0.001984	0.014191	-0.15991	0.077972	0.25665	0.023499	0.033875	0.27664	-1.1462	-0.38711	-0.010529	-0.075531	0.46616	-0.046539	-0.13153	0.071411	0.11246	-0.13077	1.9191	0.029755	-0.001526	-0.003357
14.384	-0.026398	-0.11719	-0.24216	0.067139	0.03067	0.014801	-0.083313	0.01358	0.026855	-0.059814	0.037079	0.014648	-0.10223	0.14587	0.18585	0.025177	0.013733	0.11826	-0.80383	-0.063782	-0.45761	-0.32577	0.51148	-0.027771	-0.10407	0.030212	0.12619	0.22827	1.8024	0.00473	-0.000916	0.001984
14.385	-0.020447	-0.12161	-0.21713	0.04303	0.020447	-0.002136	-0.10529	0.016479	0.04364	-0.054169	0.059204	0.013123	-0.10132	0.15121	0.045624	0.035248	-0.14633	-0.14618	-1.2558	0.19562	-0.22339	-0.45914	0.51819	0.10101	-0.065308	0.015106	0.11215	0.097351	0.65033	0.14938	-0.003967	-0.002289
14.386	-0.007935	-0.15549	-0.16846	-0.012207	0.026855	-0.005035	-0.12131	-0.035553	0.068817	-0.049133	0.14084	0.013123	-0.093536	0.1918	0.12695	0.039368	-0.17716	-0.22385	-1.7802	0.38971	-0.015564	-0.48157	0.54977	0.28244	-0.015411	0.01297	0.15656	0.041199	0.52811	0.23544	-0.002594	-0.005188
14.387	-0.007629	-0.15839	-0.12085	-0.005493	0.032959	-0.028839	-0.055695	-0.034027	0.078125	-0.063477	0.17868	0.009308	-0.041962	0.20035	-0.16739	0.018463	-0.16205	-0.45761	-1.7004	0.3389	0.050507	-0.62866	0.58334	0.33341	0.007629	-0.019226	0.14755	-0.001831	1.496	0.22003	-0.001373	-0.008545
14.388	-0.08728	-0.15579	-0.11139	-0.008698	0.024414	-0.049438	0.060272	-0.014954	0.083313	-0.051117	0.17792	0.011902	-0.028534	0.16296	-0.27451	0.030518	-0.10864	-0.67108	-1.7696	0.027466	0.15564	-0.4306	0.72159	0.18677	-0.036011	-0.026245	-0.054169	-0.020294	0.075836	-0.25528	0.000763	-0.005341
14.389	-0.009003	-0.12619	-0.085449	-0.018463	0.022278	-0.038757	0.083618	0.014191	0.078888	-0.044403	0.023346	0.019226	-0.050201	0.16754	-0.32105	0.018005	-0.04837	-0.7785	-1.3367	-0.047455	0.089264	-0.29526	0.63248	0.079956	-0.12619	-0.000916	-0.23239	-0.041199	-0.23453	-0.22003	0	-0.002747
14.39	0.008392	-0.112	-0.067444	-0.007629	0.020905	-0.050507	0.12146	0.023346	0.070648	0.006409	0.13245	0.00946	-0.13916	0.12405	-0.31158	0.019684	-0.018463	-0.79254	-0.86746	-0.14587	0.091248	-0.35812	0.737	0.37323	-0.076599	0.006409	-0.14526	-0.071259	-0.26535	0.048676	0.000305	-0.009918
14.391	-0.005341	-0.10819	-0.009155	-0.018158	0.033722	-0.06134	0.1387	0.029144	0.088806	0.041046	0.18326	0.020599	-0.20767	0.13825	-0.22537	0.012817	0.019073	-0.96435	-0.03006	-0.10147	0.12863	-0.49774	0.78613	0.38116	-0.10437	-0.00885	-0.098114	-0.15518	-0.6807	0.21301	0.000763	-0.013885
14.392	-0.023651	-0.17868	0.028534	-0.002594	0.031891	-0.03479	0.07431	0.028076	0.06546	0.011749	0.059814	0.016327	-0.13962	0.10681	-0.25116	0.027466	0.04837	-1.189	-0.91858	-0.17563	0.15137	-0.84412	0.77728	0.19577	-0.13779	-0.037842	-0.074921	-0.14999	-1.1426	-0.2832	-0.001831	-0.014343
14.393	-0.022278	-0.19516	0.027161	-0.003357	0.024109	0.000153	0.046692	0.028534	0.06073	-0.082855	-0.24597	0.009003	0.024567	0.084076	0.9848	0.042419	0.049133	-1.1014	0.22827	-0.1004	-0.19012	-1.0121	0.61676	-0.16357	-0.18723	-0.052643	0.066376	-0.29755	-0.9314	-0.38681	-0.001068	-0.016022
14.394	-0.015717	-0.19714	0.019531	0.012512	0.031281	0.02121	0.10071	0.018768	0.053558	-0.10315	-0.52795	0.020294	0.12054	0.08728	1.0539	0.036469	0.007629	-0.86395	0.14496	0.064545	-0.35614	-0.77393	0.19638	-0.4071	0.19913	-0.040741	-0.005188	0.11398	0.099792	0.048523	-0.002289	-0.012665
14.395	-0.017548	-0.18112	0.073853	0.043335	0.036163	0.024719	0.10086	0.00946	0.061035	-0.10925	-0.22018	0.012512	0.097656	0.19455	0.10605	0.034637	-0.034332	-0.849	-0.9642	0.067902	-0.29648	-0.41275	0.042114	-0.10269	0.55008	0.009155	-0.064087	0.12955	0.41397	-0.18463	-0.001068	-0.014648
14.396	-0.017242	-0.18723	0.12848	0.039063	0.023041	0.023804	0.11688	0.016632	0.057373	-0.094604	-0.088348	0.010681	0.026398	0.23773	-0.47211	0.039673	-0.045624	-1.0699	-1.5903	-0.002441	-0.24765	-0.31845	0.15381	-0.09491	0.43839	0.12009	-0.065155	0.15533	0.042572	-0.39871	-0.002289	-0.022125
14.397	-0.014648	-0.1619	0.093536	0.028381	0.022583	0.027313	0.19058	0.017548	0.041656	-0.066833	-0.19165	0.009766	0.010376	0.22171	-0.40085	0.034027	-0.006714	-1.1049	-1.7647	-0.020905	-0.077515	-0.33905	0.070953	-0.26947	0.09613	0.10483	-0.016174	0.065765	-0.34836	-0.47165	0.001221	-0.029144
14.398	-0.015259	-0.13886	0.074158	-0.031281	0.020142	0.008087	0.21805	0.011292	0.039063	-0.051422	-0.20447	0.006714	0.024414	0.21454	-0.70419	0.020447	0.007935	-1.1339	-1.8472	-0.11581	-0.011902	-0.23941	0.14771	-0.28809	-0.27939	0.0354	0.030518	-0.002899	-0.2417	-0.14557	0.001221	-0.027008
14.399	-0.014954	-0.12299	0.11047	-0.014343	0.032654	0.036011	0.25986	0.004578	0.03479	-0.040588	-0.14893	0.009155	-0.012512	0.21668	-0.65338	0.021362	0.005646	-1.1858	-1.2666	-0.14008	-0.28305	-0.22964	0.20203	-0.12116	-0.44373	0.028687	0.030823	-0.014038	0.094299	0.018158	0.002441	-0.026093
14.4	-0.025482	-0.02121	0.20264	0.002594	0.026855	0.013123	0.28412	0.007935	0.026703	-0.018005	-0.011902	0.007019	-0.088196	0.14557	-0.39444	0.041199	0.003662	-0.92209	-0.74127	-0.081177	-0.47775	-0.27496	0.40085	0.18494	-0.63278	-0.014343	0.004883	-0.019989	-0.31525	-0.074158	0.00061	-0.024109
14.401	-0.042572	0.056763	0.21637	0.039673	0.016174	0.030518	0.28381	0.018311	0.030975	0.008698	0.012207	0.003357	-0.082397	0.032501	-0.41687	0.026703	0.015564	-0.77225	-0.7103	-0.021973	-0.58868	-0.22217	0.73807	0.10162	-0.41763	-0.0354	0.049133	-0.027161	-0.38681	0.56732	-0.001221	-0.019989
14.402	-0.0383	0.12863	0.20584	-0.003052	0.027618	0.007629	0.3627	0.013123	0.023346	0.000458	-0.002594	0.010529	-0.073853	-0.047607	0.004425	0.025635	-0.018005	-0.75043	-1.0783	0.07431	-0.27481	-0.062256	0.68695	0.040894	-0.21057	0.01709	0.02243	-0.047302	0.11948	0.6192	-0.003967	-0.021057
14.403	-0.040741	0.15305	0.20767	-0.010376	0.022888	0.010223	0.46204	0.014496	0.000305	-0.003357	0.01297	0.00412	-0.082092	-0.093689	0.25909	0.013123	0.013275	-0.65704	-1.257	0.10269	0.19333	-0.036163	0.31021	-0.046234	-0.20813	0.014038	0.063019	-0.058899	0.1445	0.43167	0.001373	-0.024872
14.404	-0.033264	0.18112	0.2356	-0.002899	0.011902	-0.011292	0.49149	0.015106	-0.030365	0.019989	-0.073547	0.010529	-0.12436	-0.082245	0.4335	0.026093	0.023041	-0.681	-1.3568	-0.084229	0.03006	-0.25635	0.17151	-0.042419	-0.19638	0.004578	0.074768	-0.059814	0.24231	0.32791	0.000763	-0.015869
14.405	-0.020447	0.26794	0.28351	0.021057	0.014038	-0.006866	0.50476	0.020142	-0.040436	0.027008	0.00473	0.004272	-0.09964	0.006714	0.31189	0.014496	0.007019	-0.68039	-0.66742	-0.17868	-0.10544	-0.30075	0.060425	-0.028229	-0.17166	-0.016022	0.040283	-0.059357	0.36057	0.44266	-0.00061	-0.015717
14.406	-0.022125	0.38223	0.27588	0.028839	0.020752	0.027008	0.41031	0.019989	-0.034485	0.012665	-0.054474	0.001831	-0.083771	0.094147	0.19547	0.019073	0.027771	-0.71167	-0.12772	-0.13718	-0.16022	-0.38406	0.028992	-0.017395	-0.15182	-0.033417	0.036469	-0.11185	0.022125	0.39002	-0.002747	-0.022888
